<svg xmlns="http://www.w3.org/2000/svg" version="1.1" xmlns:xlink="http://www.w3.org/1999/xlink" xmlns:svgjs="http://svgjs.dev/svgjs" viewBox="0 0 800 800"><g transform="matrix(0.9702957262759965,0.24192189559966773,-0.24192189559966773,0.9702957262759965,233.65046772946852,-131.8870487502657)"><circle r="53" cx="773" cy="800" stroke-width="0.5" stroke="#fca311" fill="none" opacity="0.01" transform="rotate(120, 320, 0)"></circle><circle r="55.61666666666667" cx="758.3" cy="791.8333333333334" stroke-width="0.8166666666666667" stroke="#fca311" fill="none" opacity="0.018000000000000002" transform="rotate(116, 320, 0)"></circle><circle r="58.233333333333334" cx="743.6" cy="783.6666666666666" stroke-width="1.1333333333333333" stroke="#fca311" fill="none" opacity="0.026000000000000002" transform="rotate(112, 320, 0)"></circle><circle r="60.85" cx="728.9" cy="775.5" stroke-width="1.45" stroke="#fca311" fill="none" opacity="0.034" transform="rotate(108, 320, 0)"></circle><circle r="63.46666666666667" cx="714.2" cy="767.3333333333334" stroke-width="1.7666666666666666" stroke="#fca311" fill="none" opacity="0.042" transform="rotate(104, 320, 0)"></circle><circle r="66.08333333333333" cx="699.5" cy="759.1666666666666" stroke-width="2.083333333333333" stroke="#fca311" fill="none" opacity="0.05" transform="rotate(100, 320, 0)"></circle><circle r="68.7" cx="684.8" cy="751" stroke-width="2.4" stroke="#fca311" fill="none" opacity="0.058" transform="rotate(96, 320, 0)"></circle><circle r="71.31666666666666" cx="670.1" cy="742.8333333333334" stroke-width="2.716666666666667" stroke="#fca311" fill="none" opacity="0.066" transform="rotate(92, 320, 0)"></circle><circle r="73.93333333333334" cx="655.4" cy="734.6666666666666" stroke-width="3.033333333333333" stroke="#fca311" fill="none" opacity="0.074" transform="rotate(88, 320, 0)"></circle><circle r="76.55" cx="640.7" cy="726.5" stroke-width="3.3499999999999996" stroke="#fca311" fill="none" opacity="0.082" transform="rotate(84, 320, 0)"></circle><circle r="79.16666666666667" cx="626" cy="718.3333333333334" stroke-width="3.6666666666666665" stroke="#fca311" fill="none" opacity="0.09" transform="rotate(80, 320, 0)"></circle><circle r="81.78333333333333" cx="611.3" cy="710.1666666666666" stroke-width="3.9833333333333334" stroke="#fca311" fill="none" opacity="0.09799999999999999" transform="rotate(76, 320, 0)"></circle><circle r="84.4" cx="596.6" cy="702" stroke-width="4.3" stroke="#fca311" fill="none" opacity="0.106" transform="rotate(72, 320, 0)"></circle><circle r="87.01666666666667" cx="581.9" cy="693.8333333333334" stroke-width="4.616666666666666" stroke="#fca311" fill="none" opacity="0.114" transform="rotate(68, 320, 0)"></circle><circle r="89.63333333333333" cx="567.2" cy="685.6666666666666" stroke-width="4.933333333333334" stroke="#fca311" fill="none" opacity="0.122" transform="rotate(64, 320, 0)"></circle><circle r="92.25" cx="552.5" cy="677.5" stroke-width="5.25" stroke="#fca311" fill="none" opacity="0.13" transform="rotate(60, 320, 0)"></circle><circle r="94.86666666666667" cx="537.8" cy="669.3333333333334" stroke-width="5.566666666666666" stroke="#fca311" fill="none" opacity="0.138" transform="rotate(56, 320, 0)"></circle><circle r="97.48333333333333" cx="523.1" cy="661.1666666666667" stroke-width="5.883333333333333" stroke="#fca311" fill="none" opacity="0.14600000000000002" transform="rotate(52, 320, 0)"></circle><circle r="100.1" cx="508.40000000000003" cy="653" stroke-width="6.199999999999999" stroke="#fca311" fill="none" opacity="0.15400000000000003" transform="rotate(48, 320, 0)"></circle><circle r="102.71666666666667" cx="493.7" cy="644.8333333333334" stroke-width="6.516666666666667" stroke="#fca311" fill="none" opacity="0.162" transform="rotate(44, 320, 0)"></circle><circle r="105.33333333333334" cx="479" cy="636.6666666666667" stroke-width="6.833333333333333" stroke="#fca311" fill="none" opacity="0.17" transform="rotate(40, 320, 0)"></circle><circle r="107.95" cx="464.3" cy="628.5" stroke-width="7.1499999999999995" stroke="#fca311" fill="none" opacity="0.17800000000000002" transform="rotate(36, 320, 0)"></circle><circle r="110.56666666666666" cx="449.6" cy="620.3333333333334" stroke-width="7.466666666666667" stroke="#fca311" fill="none" opacity="0.186" transform="rotate(32, 320, 0)"></circle><circle r="113.18333333333334" cx="434.90000000000003" cy="612.1666666666667" stroke-width="7.783333333333333" stroke="#fca311" fill="none" opacity="0.194" transform="rotate(28, 320, 0)"></circle><circle r="115.8" cx="420.20000000000005" cy="604" stroke-width="8.1" stroke="#fca311" fill="none" opacity="0.202" transform="rotate(24, 320, 0)"></circle><circle r="118.41666666666667" cx="405.5" cy="595.8333333333334" stroke-width="8.416666666666666" stroke="#fca311" fill="none" opacity="0.21000000000000002" transform="rotate(20, 320, 0)"></circle><circle r="121.03333333333333" cx="390.8" cy="587.6666666666667" stroke-width="8.733333333333333" stroke="#fca311" fill="none" opacity="0.21800000000000003" transform="rotate(16, 320, 0)"></circle><circle r="123.65" cx="376.1" cy="579.5" stroke-width="9.049999999999999" stroke="#fca311" fill="none" opacity="0.226" transform="rotate(12, 320, 0)"></circle><circle r="126.26666666666667" cx="361.40000000000003" cy="571.3333333333334" stroke-width="9.366666666666667" stroke="#fca311" fill="none" opacity="0.234" transform="rotate(8, 320, 0)"></circle><circle r="128.88333333333333" cx="346.70000000000005" cy="563.1666666666667" stroke-width="9.683333333333334" stroke="#fca311" fill="none" opacity="0.24200000000000002" transform="rotate(4, 320, 0)"></circle><circle r="131.5" cx="332" cy="555" stroke-width="10" stroke="#fca311" fill="none" opacity="0.25" transform="rotate(0, 320, 0)"></circle></g></svg>