<svg xmlns="http://www.w3.org/2000/svg" version="1.1" xmlns:xlink="http://www.w3.org/1999/xlink" xmlns:svgjs="http://svgjs.dev/svgjs" viewBox="0 0 800 800" opacity="0.49"><g fill="none" stroke-width="4.75" stroke="#fca311" stroke-linecap="round" stroke-dasharray="0 3" transform="matrix(0.8,0,0,0.8,80.00000495910643,80.00000228881834)"><line x1="405" y1="400" x2="395" y2="400" transform="rotate(0, 400, 400)" opacity="0.43"></line><line x1="587" y1="400" x2="213" y2="400" transform="rotate(6, 400, 400)" opacity="0.31"></line><line x1="225.5" y1="400" x2="574.5" y2="400" transform="rotate(12, 400, 400)" opacity="0.82"></line><line x1="655.5" y1="400" x2="144.5" y2="400" transform="rotate(18, 400, 400)" opacity="0.48"></line><line x1="242.5" y1="400" x2="557.5" y2="400" transform="rotate(24, 400, 400)" opacity="0.93"></line><line x1="432" y1="400" x2="368" y2="400" transform="rotate(30, 400, 400)" opacity="0.34"></line><line x1="645" y1="400" x2="155" y2="400" transform="rotate(36, 400, 400)" opacity="0.96"></line><line x1="150.5" y1="400" x2="649.5" y2="400" transform="rotate(42, 400, 400)" opacity="0.27"></line><line x1="433.5" y1="400" x2="366.5" y2="400" transform="rotate(48, 400, 400)" opacity="0.43"></line><line x1="353.5" y1="400" x2="446.5" y2="400" transform="rotate(54, 400, 400)" opacity="0.97"></line><line x1="630.5" y1="400" x2="169.5" y2="400" transform="rotate(60, 400, 400)" opacity="0.55"></line><line x1="217.5" y1="400" x2="582.5" y2="400" transform="rotate(66, 400, 400)" opacity="0.90"></line><line x1="1.5" y1="400" x2="798.5" y2="400" transform="rotate(72, 400, 400)" opacity="0.87"></line><line x1="481" y1="400" x2="319" y2="400" transform="rotate(78, 400, 400)" opacity="0.13"></line><line x1="684.5" y1="400" x2="115.5" y2="400" transform="rotate(84, 400, 400)" opacity="0.37"></line><line x1="577" y1="400" x2="223" y2="400" transform="rotate(90, 400, 400)" opacity="0.52"></line><line x1="37.5" y1="400" x2="762.5" y2="400" transform="rotate(96, 400, 400)" opacity="0.84"></line><line x1="419.5" y1="400" x2="380.5" y2="400" transform="rotate(102, 400, 400)" opacity="0.39"></line><line x1="93" y1="400" x2="707" y2="400" transform="rotate(108, 400, 400)" opacity="0.12"></line><line x1="147" y1="400" x2="653" y2="400" transform="rotate(114, 400, 400)" opacity="0.74"></line><line x1="412.5" y1="400" x2="387.5" y2="400" transform="rotate(120, 400, 400)" opacity="0.20"></line><line x1="207" y1="400" x2="593" y2="400" transform="rotate(126, 400, 400)" opacity="0.27"></line><line x1="7.5" y1="400" x2="792.5" y2="400" transform="rotate(132, 400, 400)" opacity="0.84"></line><line x1="310.5" y1="400" x2="489.5" y2="400" transform="rotate(138, 400, 400)" opacity="0.23"></line><line x1="352.5" y1="400" x2="447.5" y2="400" transform="rotate(144, 400, 400)" opacity="0.95"></line><line x1="621" y1="400" x2="179" y2="400" transform="rotate(150, 400, 400)" opacity="0.93"></line><line x1="79.5" y1="400" x2="720.5" y2="400" transform="rotate(156, 400, 400)" opacity="0.09"></line><line x1="363" y1="400" x2="437" y2="400" transform="rotate(162, 400, 400)" opacity="0.80"></line><line x1="313" y1="400" x2="487" y2="400" transform="rotate(168, 400, 400)" opacity="0.99"></line><line x1="496" y1="400" x2="304" y2="400" transform="rotate(174, 400, 400)" opacity="0.91"></line><line x1="85" y1="400" x2="715" y2="400" transform="rotate(180, 400, 400)" opacity="0.76"></line><line x1="586.5" y1="400" x2="213.5" y2="400" transform="rotate(186, 400, 400)" opacity="0.77"></line><line x1="139.5" y1="400" x2="660.5" y2="400" transform="rotate(192, 400, 400)" opacity="0.88"></line><line x1="398" y1="400" x2="402" y2="400" transform="rotate(198, 400, 400)" opacity="0.80"></line><line x1="647.5" y1="400" x2="152.5" y2="400" transform="rotate(204, 400, 400)" opacity="0.31"></line><line x1="568.5" y1="400" x2="231.5" y2="400" transform="rotate(210, 400, 400)" opacity="0.35"></line><line x1="129.5" y1="400" x2="670.5" y2="400" transform="rotate(216, 400, 400)" opacity="0.31"></line><line x1="686" y1="400" x2="114" y2="400" transform="rotate(222, 400, 400)" opacity="0.87"></line><line x1="660.5" y1="400" x2="139.5" y2="400" transform="rotate(228, 400, 400)" opacity="0.49"></line><line x1="75" y1="400" x2="725" y2="400" transform="rotate(234, 400, 400)" opacity="0.16"></line><line x1="468" y1="400" x2="332" y2="400" transform="rotate(240, 400, 400)" opacity="0.27"></line><line x1="371.5" y1="400" x2="428.5" y2="400" transform="rotate(246, 400, 400)" opacity="0.68"></line><line x1="78" y1="400" x2="722" y2="400" transform="rotate(252, 400, 400)" opacity="0.50"></line><line x1="636" y1="400" x2="164" y2="400" transform="rotate(258, 400, 400)" opacity="0.94"></line><line x1="263.5" y1="400" x2="536.5" y2="400" transform="rotate(264, 400, 400)" opacity="0.42"></line><line x1="545" y1="400" x2="255" y2="400" transform="rotate(270, 400, 400)" opacity="0.75"></line><line x1="191" y1="400" x2="609" y2="400" transform="rotate(276, 400, 400)" opacity="0.69"></line><line x1="150" y1="400" x2="650" y2="400" transform="rotate(282, 400, 400)" opacity="0.55"></line><line x1="498.5" y1="400" x2="301.5" y2="400" transform="rotate(288, 400, 400)" opacity="0.21"></line><line x1="192.5" y1="400" x2="607.5" y2="400" transform="rotate(294, 400, 400)" opacity="0.09"></line><line x1="673.5" y1="400" x2="126.5" y2="400" transform="rotate(300, 400, 400)" opacity="0.69"></line><line x1="620.5" y1="400" x2="179.5" y2="400" transform="rotate(306, 400, 400)" opacity="0.27"></line><line x1="133" y1="400" x2="667" y2="400" transform="rotate(312, 400, 400)" opacity="0.64"></line><line x1="211.5" y1="400" x2="588.5" y2="400" transform="rotate(318, 400, 400)" opacity="0.13"></line><line x1="252" y1="400" x2="548" y2="400" transform="rotate(324, 400, 400)" opacity="0.22"></line><line x1="381.5" y1="400" x2="418.5" y2="400" transform="rotate(330, 400, 400)" opacity="0.35"></line><line x1="395.5" y1="400" x2="404.5" y2="400" transform="rotate(336, 400, 400)" opacity="0.43"></line><line x1="3.5" y1="400" x2="796.5" y2="400" transform="rotate(342, 400, 400)" opacity="0.98"></line><line x1="390" y1="400" x2="410" y2="400" transform="rotate(348, 400, 400)" opacity="0.91"></line><line x1="549.5" y1="400" x2="250.5" y2="400" transform="rotate(354, 400, 400)" opacity="0.21"></line><line x1="596.5" y1="400" x2="203.5" y2="400" transform="rotate(360, 400, 400)" opacity="0.70"></line><line x1="328.5" y1="400" x2="471.5" y2="400" transform="rotate(366, 400, 400)" opacity="0.14"></line></g></svg>