<?xml version="1.0" standalone="no"?>
<!DOCTYPE svg PUBLIC "-//W3C//DTD SVG 20010904//EN"
 "http://www.w3.org/TR/2001/REC-SVG-20010904/DTD/svg10.dtd">
<svg version="1.0" xmlns="http://www.w3.org/2000/svg"
 width="1024.000000pt" height="1024.000000pt" viewBox="0 0 1024.000000 1024.000000"
 preserveAspectRatio="xMidYMid meet">

<g transform="translate(0.000000,1024.000000) scale(0.100000,-0.100000)"
fill="#000000" stroke="none">
<path d="M5090 9120 l0 -195 -152 3 c-84 1 -183 3 -220 5 -56 2 -67 -1 -64
-13 3 -8 8 -100 12 -203 l6 -188 204 3 c188 3 204 2 205 -14 1 -10 3 -22 4
-28 1 -5 3 -84 4 -175 l1 -165 235 0 235 0 0 190 0 190 220 0 220 0 0 200 0
200 -220 0 -220 0 0 185 c0 102 -1 186 -2 186 -2 1 -108 4 -236 8 l-232 6 0
-195z m388 -206 l61 -7 3 -173 3 -174 -217 0 -218 0 0 180 0 180 154 0 c84 0
181 -3 214 -6z"/>
<path d="M3396 8748 c3 -101 7 -188 9 -195 3 -8 59 -12 196 -13 106 0 194 -2
195 -3 1 -1 4 -84 6 -184 l3 -182 -195 -3 c-107 -2 -196 -3 -197 -3 -1 1 -3
85 -3 187 -1 143 -5 190 -15 198 -9 7 -69 10 -178 9 l-165 -2 1 -203 2 -204
173 6 172 6 0 -199 0 -199 210 0 210 1 0 202 c0 186 1 201 18 197 9 -2 97 -5
195 -7 l177 -2 0 203 0 202 -195 0 -195 0 0 185 0 185 -214 0 -215 0 5 -182z"/>
<path d="M6518 8730 l3 -201 192 1 192 2 3 -139 c2 -76 0 -157 -3 -180 l-6
-43 -190 0 -189 0 0 -204 0 -205 410 -1 410 -1 0 401 0 400 -210 0 -210 0 0
185 0 185 -202 0 -203 0 3 -200z"/>
<path d="M7768 7560 l4 -190 -205 0 -204 0 1 -205 1 -205 200 2 200 3 3 196 2
196 210 2 210 2 2 -43 c1 -24 2 -108 2 -188 1 -80 5 -151 9 -157 6 -10 61 -13
215 -13 l207 0 -3 205 -3 205 -194 0 c-106 0 -200 3 -209 6 -14 5 -16 31 -16
185 l0 179 -204 0 c-112 0 -210 2 -218 5 -11 4 -12 -30 -10 -185z"/>
<path d="M2280 7556 l0 -186 -195 0 -195 0 0 -205 0 -205 198 0 197 0 -3 -185
-3 -185 63 -1 c35 -1 132 -2 215 -3 l153 -1 0 65 c0 36 3 121 6 190 l7 125
200 -3 c181 -3 199 -1 193 13 -3 9 -6 101 -6 205 l0 188 -189 4 c-104 1 -192
6 -196 10 -4 4 -7 83 -6 176 l1 170 -43 4 c-23 3 -122 6 -219 7 l-178 2 0
-185z m437 -453 c-1 -49 -3 -9 -3 87 0 96 2 136 3 88 2 -49 2 -127 0 -175z
m-400 55 c-2 -24 -4 -5 -4 42 0 47 2 66 4 43 2 -24 2 -62 0 -85z m403 -163 c0
-13 -28 -15 -202 -13 l-203 3 198 2 c120 2 197 7 197 13 0 6 2 10 5 10 3 0 5
-7 5 -15z"/>
<path d="M4663 7228 c4 -79 7 -254 7 -390 l0 -248 204 0 203 0 7 -46 c3 -26 6
-107 6 -180 l0 -134 235 0 236 0 -3 181 -3 180 222 -3 222 -3 1 393 0 392
-671 0 -672 0 6 -142z m877 -435 l0 -178 -207 2 c-114 2 -211 7 -216 12 -5 5
-6 77 -2 175 l7 166 209 0 209 0 0 -177z"/>
<path d="M3395 6810 l0 -181 -173 3 -174 3 4 -202 3 -203 173 3 172 2 0 -185
0 -185 144 3 c80 2 174 -1 210 -6 l66 -9 0 192 0 192 195 -5 195 -5 0 202 0
201 -195 0 -195 0 -2 178 -3 177 -210 3 -210 3 0 -181z m402 -442 c-1 -40 -3
-10 -3 67 0 77 1 110 3 73 2 -37 2 -100 0 -140z m-380 49 c-2 -23 -3 -1 -3 48
0 50 1 68 3 42 2 -26 2 -67 0 -90z m13 -112 c0 -5 -5 -3 -10 5 -5 8 -10 20
-10 25 0 6 5 3 10 -5 5 -8 10 -19 10 -25z m10 -45 c0 -5 -4 -10 -10 -10 -5 0
-10 5 -10 10 0 6 5 10 10 10 6 0 10 -4 10 -10z m218 3 c-38 -2 -98 -2 -135 0
-38 2 -7 3 67 3 74 0 105 -1 68 -3z m147 -3 c3 -5 -1 -10 -10 -10 -9 0 -13 5
-10 10 3 6 8 10 10 10 2 0 7 -4 10 -10z"/>
<path d="M7798 6973 l-28 -4 0 -189 0 -189 213 -3 c116 -2 213 -3 214 -3 6 1
5 374 -1 384 -7 11 -331 14 -398 4z"/>
<path d="M6520 6309 c0 -184 3 -357 6 -385 l7 -52 186 -4 c102 -3 188 -3 191
-1 3 3 5 86 4 186 l-1 182 81 -2 c45 -2 141 -4 214 -5 l132 -3 0 203 0 202
-387 0 c-214 0 -398 3 -410 6 l-23 6 0 -333z"/>
<path d="M8244 5892 c3 -5 -3 -8 -12 -8 -9 1 -18 -2 -19 -6 -2 -5 -3 -79 -3
-166 l0 -158 195 -2 195 -1 0 157 c-1 141 -2 154 -15 132 -8 -14 -14 -19 -15
-12 0 18 -25 9 -25 -9 0 -8 9 -14 20 -14 19 0 20 -8 23 -122 l3 -122 -185 1
c-103 1 -186 5 -186 9 0 4 12 6 26 3 14 -3 31 0 38 5 8 7 35 7 76 1 68 -10
154 -12 133 -3 -7 2 -13 11 -13 19 0 8 -4 14 -10 14 -6 0 -10 32 -10 75 l0 75
-71 0 c-70 0 -70 0 -67 26 3 23 -1 27 -29 30 -18 2 -33 -1 -33 -6 0 -6 7 -10
16 -10 9 0 18 -9 21 -20 3 -11 9 -20 14 -20 5 0 9 -36 9 -81 0 -71 -2 -80 -17
-77 -15 3 -18 15 -18 73 0 40 -4 70 -10 70 -6 0 -10 -29 -10 -68 0 -53 -4 -70
-17 -78 -15 -8 -16 3 -15 125 2 120 11 175 24 139 3 -10 36 -12 121 -11 l117
2 -105 6 -105 6 137 2 c85 1 138 -2 141 -8 3 -6 4 -5 3 2 -2 9 -37 15 -122 18
l-119 6 120 5 120 5 -163 2 c-90 1 -161 -2 -158 -6z"/>
<path d="M8480 5785 c0 -14 5 -25 10 -25 6 0 10 11 10 25 0 14 -4 25 -10 25
-5 0 -10 -11 -10 -25z"/>
<path d="M8535 5590 c28 -12 45 -12 45 0 0 6 -15 10 -32 9 -28 0 -30 -2 -13
-9z"/>
<path d="M2838 5370 l4 -190 -382 0 -381 0 3 -195 3 -195 -537 0 -538 0 0
-2015 0 -2015 4215 0 4214 0 1 2004 c0 1607 -2 2006 -12 2013 -7 4 -217 9
-465 11 l-453 3 0 188 0 188 -77 7 c-42 3 -208 6 -370 6 l-293 0 0 113 c0 63
-3 148 -6 190 l-7 77 -1108 0 -1109 0 0 -190 0 -190 -215 0 -215 0 -1 33 c0
17 0 95 1 172 1 77 -2 148 -5 158 -7 16 -72 17 -1139 17 l-1131 0 3 -190z
m119 -206 c-3 -3 -12 -4 -19 -1 -8 3 -5 6 6 6 11 1 17 -2 13 -5z m2121 -341
c-1 -192 -4 -277 -5 -191 l-4 158 -1076 0 c-592 0 -1079 2 -1081 5 -3 3 72 5
167 5 l172 0 -1 168 c-1 92 -1 175 -1 185 1 16 51 17 916 17 l915 0 -2 -347z
m2278 162 l-8 -185 194 -2 c106 -2 -293 -5 -887 -8 l-1080 -5 -6 -115 c-3 -72
-6 -1 -7 193 l-1 307 901 0 901 0 -7 -185z m404 -70 c0 -69 -3 -125 -7 -125
-5 0 -7 56 -5 125 2 69 5 125 8 125 2 0 4 -56 4 -125z m-4928 -334 c2 -104 6
-193 10 -197 4 -3 414 -7 912 -8 l904 -1 7 -187 7 -188 207 0 206 0 -1 -1206
-1 -1206 -212 0 -211 0 0 -219 0 -219 -1611 0 -1610 0 2 815 3 815 81 0 c47 0
75 4 67 9 -8 4 -13 11 -13 15 1 3 1 80 1 171 0 158 -1 165 -20 165 -11 0 -20
-6 -21 -12 0 -10 -2 -10 -6 0 -3 7 -23 12 -50 12 l-45 0 3 615 4 615 224 0
224 0 -6 -122 c-4 -66 -7 -563 -7 -1103 l0 -983 -135 -7 -135 -7 0 -304 0
-304 355 0 355 0 0 1230 0 1230 260 0 260 0 0 183 c0 100 -3 193 -7 206 l-6
23 -358 -3 -359 -4 0 151 c0 83 -3 166 -6 183 l-6 31 365 0 366 0 3 -189z
m5653 9 l0 -175 -350 -5 c-192 -3 -354 -8 -360 -12 -7 -4 -9 59 -7 183 l3 189
357 -2 357 -3 0 -175z m-3408 -152 c-3 -7 -5 -2 -5 12 0 14 2 19 5 13 2 -7 2
-19 0 -25z m-89 -25 c-54 -2 -142 -2 -195 0 -54 1 -10 3 97 3 107 0 151 -2 98
-3z m705 0 c-23 -2 -64 -2 -90 0 -26 2 -7 3 42 3 50 0 71 -1 48 -3z m230 0
c-7 -2 -19 -2 -25 0 -7 3 -2 5 12 5 14 0 19 -2 13 -5z m50 0 c-7 -2 -19 -2
-25 0 -7 3 -2 5 12 5 14 0 19 -2 13 -5z m1797 -220 c3 -100 7 -184 10 -186 3
-3 98 -7 213 -8 l207 -4 0 -1422 0 -1423 -1102 0 -1103 0 3 213 3 214 -92 6
c-51 4 -151 7 -223 7 l-131 0 0 1205 0 1205 223 0 223 0 -3 188 -3 188 885 -1
885 -1 5 -181z m1266 109 c-3 -37 -6 -761 -6 -1609 l0 -1543 -205 0 -205 0 1
828 c0 455 3 821 6 815 3 -10 39 -13 127 -13 l123 0 5 172 c3 94 4 178 1 185
-4 10 -37 13 -134 13 l-129 0 0 569 c0 312 3 588 6 612 l6 44 205 -3 206 -3
-7 -67z m-7159 -2609 c-1 -65 -3 -14 -3 112 0 127 2 180 3 118 2 -62 2 -165 0
-230z"/>
<path d="M3056 3934 c-3 -8 -3 -93 1 -189 l6 -175 514 0 513 0 0 185 0 185
-42 1 c-24 1 -255 3 -515 4 -401 3 -472 1 -477 -11z"/>
<path d="M3399 3146 c-2 -2 -3 -88 -1 -190 l3 -186 492 -2 492 -3 4 188 3 187
-288 1 c-159 0 -381 2 -495 5 -113 3 -207 3 -210 0z"/>
<path d="M3053 2228 c4 -66 7 -152 7 -190 l0 -68 665 0 665 0 0 184 c0 158 -2
185 -16 190 -9 3 -311 6 -671 6 l-656 0 6 -122z"/>
<path d="M6520 3758 l0 -188 194 0 193 0 6 68 c4 37 7 123 7 191 l0 123 -200
-3 -200 -4 0 -187z"/>
<path d="M7170 3758 l0 -188 124 0 c68 0 138 -3 155 -6 l31 -6 0 191 c0 146
-3 191 -12 191 -7 0 -77 2 -156 3 l-142 2 0 -187z"/>
<path d="M6160 2958 l0 -188 380 0 379 0 -2 179 c-1 99 -6 183 -10 188 -5 4
-175 8 -378 8 l-369 0 0 -187z"/>
<path d="M6162 2163 l3 -188 658 -3 657 -2 -2 187 -3 188 -658 3 -658 2 3
-187z"/>
<path d="M27 103 c-25 -4 -27 -8 -27 -54 0 -48 1 -49 30 -49 30 0 30 1 30 55
0 30 -1 54 -2 54 -2 -1 -15 -4 -31 -6z"/>
</g>
</svg>
