<svg xmlns="http://www.w3.org/2000/svg" version="1.1" xmlns:xlink="http://www.w3.org/1999/xlink" xmlns:svgjs="http://svgjs.dev/svgjs" viewBox="0 0 2400 800" opacity="0.59"><g stroke-width="1.5" stroke="#fca311" fill="none" stroke-linecap="round"><path d="M 0 525 Q 600 205 1200 400 Q 1800 595 2400 525" stroke-dasharray="1 3" opacity="0.28"></path><path d="M 0 504 Q 600 205 1200 400 Q 1800 595 2400 504" stroke-dasharray="2 0" opacity="0.86"></path><path d="M 0 483 Q 600 205 1200 400 Q 1800 595 2400 483" stroke-dasharray="1 2" opacity="0.20"></path><path d="M 0 462 Q 600 205 1200 400 Q 1800 595 2400 462" stroke-dasharray="2 2" opacity="0.54"></path><path d="M 0 441 Q 600 205 1200 400 Q 1800 595 2400 441" stroke-dasharray="0 1" opacity="0.26"></path><path d="M 0 420 Q 600 205 1200 400 Q 1800 595 2400 420" stroke-dasharray="3 1" opacity="0.44"></path><path d="M 0 399 Q 600 205 1200 400 Q 1800 595 2400 399" stroke-dasharray="1 0" opacity="0.36"></path><path d="M 0 378 Q 600 205 1200 400 Q 1800 595 2400 378" stroke-dasharray="2 2" opacity="0.16"></path><path d="M 0 357 Q 600 205 1200 400 Q 1800 595 2400 357" stroke-dasharray="1 1" opacity="0.32"></path><path d="M 0 336 Q 600 205 1200 400 Q 1800 595 2400 336" stroke-dasharray="1 2" opacity="0.90"></path><path d="M 0 315 Q 600 205 1200 400 Q 1800 595 2400 315" stroke-dasharray="1 2" opacity="0.40"></path><path d="M 0 294 Q 600 205 1200 400 Q 1800 595 2400 294" stroke-dasharray="2 1" opacity="0.96"></path><path d="M 0 273 Q 600 205 1200 400 Q 1800 595 2400 273" stroke-dasharray="3 0" opacity="0.18"></path><path d="M 0 252 Q 600 205 1200 400 Q 1800 595 2400 252" stroke-dasharray="2 3" opacity="0.08"></path><path d="M 0 231 Q 600 205 1200 400 Q 1800 595 2400 231" stroke-dasharray="0 3" opacity="0.27"></path><path d="M 0 210 Q 600 205 1200 400 Q 1800 595 2400 210" stroke-dasharray="0 1" opacity="0.59"></path><path d="M 0 189 Q 600 205 1200 400 Q 1800 595 2400 189" stroke-dasharray="1 0" opacity="0.18"></path><path d="M 0 168 Q 600 205 1200 400 Q 1800 595 2400 168" stroke-dasharray="3 1" opacity="0.95"></path><path d="M 0 147 Q 600 205 1200 400 Q 1800 595 2400 147" stroke-dasharray="3 1" opacity="0.46"></path><path d="M 0 126 Q 600 205 1200 400 Q 1800 595 2400 126" stroke-dasharray="1 1" opacity="0.53"></path><path d="M 0 105 Q 600 205 1200 400 Q 1800 595 2400 105" stroke-dasharray="0 2" opacity="0.52"></path><path d="M 0 84 Q 600 205 1200 400 Q 1800 595 2400 84" stroke-dasharray="0 2" opacity="0.52"></path><path d="M 0 63 Q 600 205 1200 400 Q 1800 595 2400 63" stroke-dasharray="1 2" opacity="0.22"></path><path d="M 0 42 Q 600 205 1200 400 Q 1800 595 2400 42" stroke-dasharray="0 2" opacity="0.24"></path></g></svg>